<?xml version="1.0" encoding="utf-8"?>
<svg width="65" height="65" viewBox="0 0 65 65" fill="none" xmlns="http://www.w3.org/2000/svg">
<g clip-path="url(#clip0)">
<path d="M32.998 64.75C50.6712 64.75 64.998 50.4231 64.998 32.75C64.998 15.0769 50.6712 0.75 32.998 0.75C15.3249 0.75 0.998047 15.0769 0.998047 32.75C0.998047 50.4231 15.3249 64.75 32.998 64.75Z" fill="#F65335"/>
<path d="M30.5987 19.5501L31.3415 12.3501H28.4844L29.1987 19.5501H30.5987Z" fill="#0B2127"/>
<path d="M26.4844 20.4932L24.0272 14.1504L21.4844 15.4361L25.1415 21.1504L26.4844 20.4932Z" fill="#0B2127"/>
<path d="M38.2269 15.579L35.7698 14.1504L32.8555 20.3218L34.3412 21.179L38.2269 15.579Z" fill="#0B2127"/>
<path d="M47.5416 37.0645C48.2559 36.3788 48.6559 35.436 48.6845 34.4931C48.713 33.5217 48.3702 32.636 47.6845 31.9788L45.8845 29.9788C45.8845 29.8645 45.913 29.7217 45.913 29.6074C45.913 28.636 45.4845 27.6931 44.7416 27.036L43.6273 26.0645L48.2559 21.836C48.913 21.2074 49.2845 20.2931 49.2845 19.236C49.2845 17.9502 48.713 16.636 47.8273 15.7502C46.8273 14.7788 45.1987 14.7788 44.2273 15.7217L41.713 18.1502L28.0273 30.0931L27.3416 29.4645L25.513 26.2074C24.1987 22.2931 20.9416 20.9502 18.5416 21.6645C17.8845 21.8645 17.3416 22.3217 17.0273 22.9217C16.6845 23.5788 16.6273 24.3502 16.8559 25.0645L18.4845 29.236L19.7702 33.6931C19.2559 35.4931 19.313 37.3788 19.8845 39.0931L19.8559 39.1217C18.0559 40.836 17.4273 43.4074 18.2559 45.6931C19.4845 49.0645 22.2273 51.6074 26.0273 52.8645C26.6273 53.0645 27.313 53.1502 27.9702 53.1502C29.713 53.1502 31.5702 52.5217 32.8845 51.4074C33.113 51.4074 33.3416 51.436 33.5702 51.436C36.5987 51.436 39.6559 50.4074 41.9702 48.3502L47.3416 43.3502L47.9987 42.8074C48.7702 42.1502 49.2273 41.236 49.2845 40.236C49.313 39.3217 48.9702 38.4645 48.313 37.836L47.5416 37.0645Z" fill="white"/>
<path d="M47.5416 37.064C48.2559 36.3783 48.6559 35.4355 48.6845 34.4926C48.713 33.5212 48.3702 32.6355 47.6845 31.9783L45.8845 29.9783C45.8845 29.864 45.913 29.7212 45.913 29.6069C45.913 28.6355 45.4845 27.6926 44.7416 27.0355L43.6273 26.064L48.2559 21.8355C48.913 21.2069 49.2845 20.2926 49.2845 19.2355C49.2845 17.9498 48.713 16.6355 47.8273 15.7498C46.8273 14.7783 45.1987 14.7783 44.2273 15.7212L41.713 18.1498L28.0273 30.0926L27.3416 29.464L25.513 26.2069C24.1987 22.2926 20.9416 20.9498 18.5416 21.664C17.8845 21.864 17.3416 22.3212 17.0273 22.9212C16.6845 23.5783 16.6273 24.3498 16.8559 25.064L18.4845 29.2355L19.7702 33.6926C19.2559 35.4926 19.313 37.3783 19.8845 39.0926L19.8559 39.1212C18.0559 40.8355 17.4273 43.4069 18.2559 45.6926C19.4845 49.064 22.2273 51.6069 26.0273 52.864C26.6273 53.064 27.313 53.1498 27.9702 53.1498C29.713 53.1498 31.5702 52.5212 32.8845 51.4069C33.113 51.4069 33.3416 51.4355 33.5702 51.4355C36.5987 51.4355 39.6559 50.4069 41.9702 48.3498L47.3416 43.3498L47.9987 42.8069C48.7702 42.1498 49.2273 41.2355 49.2845 40.2355C49.313 39.3212 48.9702 38.464 48.313 37.8355L47.5416 37.064ZM46.9702 41.4355L42.7702 44.9212C42.0559 45.5212 41.0559 45.5212 40.4559 44.9498C40.1987 44.7212 40.0559 44.3783 40.0845 44.0355C40.0845 43.6355 40.313 43.2069 40.6559 42.9212L46.2273 38.1212L47.1702 39.064C47.4559 39.3498 47.6273 39.7212 47.5987 40.1783C47.5702 40.664 47.3416 41.1212 46.9702 41.4355ZM46.4559 33.1498L46.513 33.2069C46.8273 33.5212 47.0273 33.9498 46.9987 34.4355C46.9702 35.0069 46.713 35.5783 46.2273 35.9783L41.5702 39.5498C40.7416 40.2355 39.5702 40.264 38.8845 39.6069C38.5987 39.3498 38.4559 38.9783 38.4559 38.5783C38.4845 38.0926 38.713 37.6069 39.1416 37.264C39.1416 37.264 45.0845 31.864 45.1702 31.7498L46.4559 33.1498ZM43.6273 28.2926C43.9987 28.6355 44.1987 29.0926 44.1987 29.5783C44.1987 30.064 43.9987 30.5498 43.6273 30.864L39.513 34.5212C38.7987 35.1498 37.713 35.1498 37.0273 34.5212C36.713 34.2355 36.513 33.8355 36.513 33.4069C36.513 32.9783 36.6845 32.6069 37.0273 32.2926L42.3987 27.1498L43.6273 28.2926ZM26.3987 47.064L25.2559 48.3498C26.713 49.6355 28.4273 50.5212 30.2845 51.0069C29.0845 51.464 27.713 51.5783 26.6273 51.2355C23.3416 50.1498 20.9702 47.9783 19.913 45.0926C19.3987 43.664 19.713 42.0355 20.6845 40.8069C21.1416 41.6069 21.713 42.3498 22.3987 43.0069L23.5987 41.7783C21.4845 39.7212 20.6845 36.7498 21.5702 33.9783L21.6559 33.7212L20.2273 28.7212L18.5987 24.5212C18.513 24.2355 18.5416 23.9783 18.6559 23.7212C18.7416 23.5783 18.8845 23.3783 19.1416 23.2926C21.2559 22.664 23.2845 24.5783 23.9987 26.8069L24.0273 26.8926L26.0559 30.5498L29.4273 33.664L30.5987 32.4069L29.3702 31.264L42.9416 19.4069L45.513 16.9498C45.8273 16.6355 46.3987 16.6355 46.7416 16.9783C47.313 17.5212 47.6845 18.4069 47.6845 19.2355C47.6845 19.6355 47.5987 20.1783 47.1987 20.5783L39.113 28.064C38.8845 28.2926 38.5702 28.4069 38.2273 28.4069C37.913 28.4069 37.5987 28.264 37.3702 28.0355L36.7702 27.4069L35.513 28.5783L36.113 29.2069C36.5702 29.6926 36.5702 30.4926 36.0559 30.9498L35.913 31.1212C35.2273 31.7212 34.8559 32.6069 34.8559 33.4926C34.8559 34.4069 35.2559 35.264 35.9416 35.864C36.3987 36.264 36.913 36.5212 37.4559 36.664C37.0559 37.2355 36.8273 37.864 36.7987 38.5498C36.7702 39.464 37.113 40.2926 37.7416 40.8926C38.2273 41.3498 38.8273 41.6355 39.4559 41.7498C38.7987 42.3498 38.4273 43.1498 38.3987 44.0069C38.3702 44.864 38.6845 45.6355 39.313 46.2355C39.7702 46.664 40.3416 46.9498 40.9416 47.064L40.913 47.0926C36.8559 50.6069 30.3702 50.6069 26.3987 47.064Z" fill="#0B2127"/>
<path d="M29.8841 35.007C30.9413 38.407 29.9984 42.0641 27.3984 44.5784L28.5984 45.807C30.5413 43.9213 31.7127 41.4927 31.9984 38.9213L34.427 43.4641L35.9413 42.6641L31.4841 34.3784L29.8841 35.007Z" fill="#0B2127"/>
</g>
<defs>
<clipPath id="clip0">
<rect width="64" height="64" fill="white" transform="translate(0.998047 0.75)"/>
</clipPath>
</defs>
</svg>
