<?xml version="1.0" encoding="UTF-8"?><svg xmlns="http://www.w3.org/2000/svg" viewBox="0 0 224 224"><defs><style>.cls-1{fill:#edf2f6;}.cls-2{fill:#f65335;}.cls-3{fill:#fff;}.cls-4{fill:#0b2127;}</style></defs><g id="Icons_outlined_Grey" data-name="Icons (outlined) Grey"><circle class="cls-1" cx="112" cy="112" r="112"/><polygon class="cls-2" points="103.61 65.77 106.16 40.63 96.16 40.63 98.72 65.77 103.61 65.77"/><polygon class="cls-2" points="89.15 69.06 80.63 46.86 71.69 51.36 84.46 71.42 89.15 69.06"/><polygon class="cls-2" points="130.32 51.87 121.66 46.87 111.49 68.48 116.7 71.49 130.32 51.87"/><path class="cls-3" d="M162.91,127.09a13.31,13.31,0,0,0,4-9,11.48,11.48,0,0,0-3.47-8.76l-6.28-7a10.91,10.91,0,0,0,.07-1.29,12.11,12.11,0,0,0-4.05-9l-3.85-3.42,16.21-14.84a12.37,12.37,0,0,0,3.6-9A17.45,17.45,0,0,0,164,52.45a9.2,9.2,0,0,0-12.64-.09l-8.82,8.5L94.65,102.68l-2.36-2.19L85.9,89.06c-4.62-13.71-16-18.42-24.36-15.87a8.85,8.85,0,0,0-5.32,4.44,9.7,9.7,0,0,0-.56,7.46l5.68,14.6,4.5,15.62a32.36,32.36,0,0,0,.36,18.88l0,.05a21.73,21.73,0,0,0-5.65,23c4.27,11.81,13.94,20.74,27.21,25.13a22,22,0,0,0,6.84,1,27.4,27.4,0,0,0,17.17-6.07c.8,0,1.61.06,2.41.06a44.22,44.22,0,0,0,29.36-10.8L162.33,149l2.25-1.87a12.26,12.26,0,0,0,4.46-9,10.93,10.93,0,0,0-3.36-8.37Z"/><path class="cls-4" d="M162.91,127.09a13.31,13.31,0,0,0,4-9,11.48,11.48,0,0,0-3.47-8.76l-6.28-7a10.91,10.91,0,0,0,.07-1.29,12.11,12.11,0,0,0-4.05-9l-3.85-3.42,16.21-14.84a12.37,12.37,0,0,0,3.6-9A17.45,17.45,0,0,0,164,52.45a9.2,9.2,0,0,0-12.64-.09l-8.82,8.5L94.65,102.68l-2.36-2.19L85.9,89.06c-4.62-13.71-16-18.42-24.36-15.87a8.85,8.85,0,0,0-5.32,4.44,9.7,9.7,0,0,0-.56,7.46l5.68,14.6,4.5,15.62a32.36,32.36,0,0,0,.36,18.88l0,.05a21.73,21.73,0,0,0-5.65,23c4.27,11.81,13.94,20.74,27.21,25.13a22,22,0,0,0,6.84,1,27.4,27.4,0,0,0,17.17-6.07c.8,0,1.61.06,2.41.06a44.22,44.22,0,0,0,29.36-10.8L162.33,149l2.25-1.87a12.26,12.26,0,0,0,4.46-9,10.93,10.93,0,0,0-3.36-8.37Zm-2,15.32-14.71,12.25a6.13,6.13,0,0,1-8.13.09,4.16,4.16,0,0,1-1.31-3.24,5.3,5.3,0,0,1,2-3.86l19.47-16.79,3.32,3.28A5,5,0,0,1,163,138,6.21,6.21,0,0,1,160.89,142.41Zm-1.83-29,.18.18a5.6,5.6,0,0,1,1.7,4.31,7.44,7.44,0,0,1-2.7,5.38L142,135.8c-2.92,2.43-6.95,2.54-9.38.24a4.74,4.74,0,0,1-1.47-3.64,6.4,6.4,0,0,1,2.39-4.63s20.85-19,21.14-19.32Zm-9.85-16.94a6.08,6.08,0,0,1,0,9.09l-14.4,12.81a6.6,6.6,0,0,1-8.75,0,5.09,5.09,0,0,1,0-7.72l18.84-18ZM88.85,162.12l-4,4.48a42.34,42.34,0,0,0,17.57,9.27,19.62,19.62,0,0,1-12.83.76c-11.5-3.8-19.82-11.43-23.45-21.47a15.58,15.58,0,0,1,2.68-15,33.81,33.81,0,0,0,6,7.71L79,143.56a26.67,26.67,0,0,1-7.13-27.34l.27-.86-5-17.46L61.34,83.16a3.6,3.6,0,0,1,.2-2.76,2.88,2.88,0,0,1,1.74-1.46c7.4-2.25,14.46,4.47,17,12.27l.09.27,7.13,12.77,11.78,10.91,4.08-4.41-4.29-4,47.49-41.45,9-8.64a3.17,3.17,0,0,1,4.31.08,11.45,11.45,0,0,1,3.3,7.87,6.48,6.48,0,0,1-1.7,4.68l-28.3,26.16h0a4.29,4.29,0,0,1-6.07-.16L125,93.13l-4.35,4.13,2,2.17a4.35,4.35,0,0,1-.16,6.12l-.52.63a11.08,11.08,0,0,0,0,16.64,12.49,12.49,0,0,0,5.33,2.8,12,12,0,0,0-2.29,6.59,10.67,10.67,0,0,0,3.35,8.19,12,12,0,0,0,6,3,11.22,11.22,0,0,0-3.7,7.86,10.12,10.12,0,0,0,3.18,7.79,11.38,11.38,0,0,0,5.65,2.91l-.12.11C125.5,174.52,102.8,174.52,88.85,162.12Z"/><path class="cls-4" d="M101.07,119.87a32.64,32.64,0,0,1-8.73,33.47l4.17,4.32a39,39,0,0,0,11.87-24.09l8.52,15.86,5.28-2.84-15.6-29Z"/></g><g id="Icons_outlined_" data-name="Icons (outlined)"><circle class="cls-2" cx="112" cy="112" r="112"/><polygon class="cls-4" points="103.61 65.77 106.16 40.63 96.16 40.63 98.72 65.77 103.61 65.77"/><polygon class="cls-4" points="89.15 69.06 80.63 46.86 71.69 51.36 84.46 71.42 89.15 69.06"/><polygon class="cls-4" points="130.32 51.87 121.66 46.87 111.49 68.48 116.7 71.49 130.32 51.87"/><path class="cls-3" d="M162.91,127.09a13.31,13.31,0,0,0,4-9,11.48,11.48,0,0,0-3.47-8.76l-6.28-7a10.91,10.91,0,0,0,.07-1.29,12.11,12.11,0,0,0-4.05-9l-3.85-3.42,16.21-14.84a12.37,12.37,0,0,0,3.6-9A17.45,17.45,0,0,0,164,52.45a9.2,9.2,0,0,0-12.64-.09l-8.82,8.5L94.65,102.68l-2.36-2.19L85.9,89.06c-4.62-13.71-16-18.42-24.36-15.87a8.85,8.85,0,0,0-5.32,4.44,9.7,9.7,0,0,0-.56,7.46l5.68,14.6,4.5,15.62a32.36,32.36,0,0,0,.36,18.88l0,.05a21.73,21.73,0,0,0-5.65,23c4.27,11.81,13.94,20.74,27.21,25.13a22,22,0,0,0,6.84,1,27.4,27.4,0,0,0,17.17-6.07c.8,0,1.61.06,2.41.06a44.22,44.22,0,0,0,29.36-10.8L162.33,149l2.25-1.87a12.26,12.26,0,0,0,4.46-9,10.93,10.93,0,0,0-3.36-8.37Z"/><path class="cls-4" d="M162.91,127.09a13.31,13.31,0,0,0,4-9,11.48,11.48,0,0,0-3.47-8.76l-6.28-7a10.91,10.91,0,0,0,.07-1.29,12.11,12.11,0,0,0-4.05-9l-3.85-3.42,16.21-14.84a12.37,12.37,0,0,0,3.6-9A17.45,17.45,0,0,0,164,52.45a9.2,9.2,0,0,0-12.64-.09l-8.82,8.5L94.65,102.68l-2.36-2.19L85.9,89.06c-4.62-13.71-16-18.42-24.36-15.87a8.85,8.85,0,0,0-5.32,4.44,9.7,9.7,0,0,0-.56,7.46l5.68,14.6,4.5,15.62a32.36,32.36,0,0,0,.36,18.88l0,.05a21.73,21.73,0,0,0-5.65,23c4.27,11.81,13.94,20.74,27.21,25.13a22,22,0,0,0,6.84,1,27.4,27.4,0,0,0,17.17-6.07c.8,0,1.61.06,2.41.06a44.22,44.22,0,0,0,29.36-10.8L162.33,149l2.25-1.87a12.26,12.26,0,0,0,4.46-9,10.93,10.93,0,0,0-3.36-8.37Zm-2,15.32-14.71,12.25a6.13,6.13,0,0,1-8.13.09,4.16,4.16,0,0,1-1.31-3.24,5.3,5.3,0,0,1,2-3.86l19.47-16.79,3.32,3.28A5,5,0,0,1,163,138,6.21,6.21,0,0,1,160.89,142.41Zm-1.83-29,.18.18a5.6,5.6,0,0,1,1.7,4.31,7.44,7.44,0,0,1-2.7,5.38L142,135.8c-2.92,2.43-6.95,2.54-9.38.24a4.74,4.74,0,0,1-1.47-3.64,6.4,6.4,0,0,1,2.39-4.63s20.85-19,21.14-19.32Zm-9.85-16.94a6.08,6.08,0,0,1,0,9.09l-14.4,12.81a6.6,6.6,0,0,1-8.75,0,5.09,5.09,0,0,1,0-7.72l18.84-18ZM88.85,162.12l-4,4.48a42.34,42.34,0,0,0,17.57,9.27,19.62,19.62,0,0,1-12.83.76c-11.5-3.8-19.82-11.43-23.45-21.47a15.58,15.58,0,0,1,2.68-15,33.81,33.81,0,0,0,6,7.71L79,143.56a26.67,26.67,0,0,1-7.13-27.34l.27-.86-5-17.46L61.34,83.16a3.6,3.6,0,0,1,.2-2.76,2.88,2.88,0,0,1,1.74-1.46c7.4-2.25,14.46,4.47,17,12.27l.09.27,7.13,12.77,11.78,10.91,4.08-4.41-4.29-4,47.49-41.45,9-8.64a3.17,3.17,0,0,1,4.31.08,11.45,11.45,0,0,1,3.3,7.87,6.48,6.48,0,0,1-1.7,4.68l-28.3,26.16h0a4.29,4.29,0,0,1-6.07-.16L125,93.13l-4.35,4.13,2,2.17a4.35,4.35,0,0,1-.16,6.12l-.52.63a11.08,11.08,0,0,0,0,16.64,12.49,12.49,0,0,0,5.33,2.8,12,12,0,0,0-2.29,6.59,10.67,10.67,0,0,0,3.35,8.19,12,12,0,0,0,6,3,11.22,11.22,0,0,0-3.7,7.86,10.12,10.12,0,0,0,3.18,7.79,11.38,11.38,0,0,0,5.65,2.91l-.12.11C125.5,174.52,102.8,174.52,88.85,162.12Z"/><path class="cls-4" d="M101.07,119.87a32.64,32.64,0,0,1-8.73,33.47l4.17,4.32a39,39,0,0,0,11.87-24.09l8.52,15.86,5.28-2.84-15.6-29Z"/></g></svg>