<?xml version="1.0" encoding="UTF-8"?><svg width="64" height="64" viewBox="0 0 64 64" fill="none" xmlns="http://www.w3.org/2000/svg">
<path d="M52.8763 35.2643C53.124 35.2643 53.3249 35.0635 53.3249 34.8158C53.3249 34.568 53.124 34.3672 52.8763 34.3672C52.6286 34.3672 52.4277 34.568 52.4277 34.8158C52.4277 35.0635 52.6286 35.2643 52.8763 35.2643Z" fill="white"/>
<path d="M52.2551 23.3242H18.5723V44.4014H52.2551V23.3242Z" fill="#0B2127"/>
<path d="M55.4294 20.166H20.5723V42.4517H55.4294V20.166Z" fill="white"/>
<path d="M54.8571 20.7366V41.8795H21.1429V20.7366H54.8571V20.7366ZM56 19.5938H20V43.0223H56V19.5938Z" fill="#0B2127"/>
<path d="M50.9925 22.6523H25.0097C25.0082 23.1618 24.8045 23.6499 24.4435 24.0093C24.0824 24.3688 23.5935 24.5702 23.084 24.5695V37.9695C23.5927 37.9695 24.0808 38.1708 24.4416 38.5295C24.8025 38.8881 25.0067 39.375 25.0097 39.8838V39.8981H50.9925V39.8838C50.9849 39.3846 51.1755 38.9028 51.5226 38.5439C51.8696 38.1851 52.3448 37.9785 52.844 37.9695H52.9183V24.5695H52.8583C52.6095 24.5673 52.3637 24.5158 52.135 24.418C51.9063 24.3202 51.6992 24.1781 51.5257 23.9999C51.3523 23.8216 51.2158 23.6107 51.1243 23.3795C51.0328 23.1482 50.988 22.901 50.9925 22.6523V22.6523Z" fill="#0B2127"/>
<path d="M38.4351 35.8619V36.7847H37.7151V35.8619C36.1979 35.7619 35.1436 34.9533 34.6465 33.6704L36.3208 32.6847C36.5779 33.5419 37.0922 34.0561 37.7151 34.2047V31.919L37.0922 31.7819C36.4842 31.6787 35.9349 31.3568 35.5477 30.8769C35.1604 30.3971 34.9618 29.7922 34.9893 29.1761C34.9893 27.6447 36.0893 26.759 37.7151 26.659V25.7676H38.4379V26.6647C39.6608 26.7647 40.7494 27.3619 41.2265 28.6447L39.7151 29.5933C39.4722 28.8219 39.0322 28.3733 38.4436 28.2219V30.3047L39.3351 30.5161C40.8179 30.8647 41.3665 31.7361 41.3665 33.0447C41.3579 34.6161 40.2322 35.7133 38.4351 35.8619ZM37.7151 30.119V28.1961C37.5989 28.202 37.4851 28.2308 37.3802 28.2808C37.2753 28.3309 37.1813 28.4013 37.1037 28.4879C37.0261 28.5745 36.9665 28.6756 36.9282 28.7854C36.89 28.8952 36.8738 29.0115 36.8808 29.1276C36.8779 29.5361 37.1436 29.8961 37.7151 30.119ZM39.4093 33.2047C39.4093 32.6733 39.1865 32.2876 38.4379 32.0904V34.2333C39.0322 34.159 39.4065 33.8133 39.4065 33.2047H39.4093Z" fill="white"/>
<path d="M16.2857 25.0215H8L8.57143 27.3072H16.2857V25.0215Z" fill="#F65335"/>
<path d="M16.2854 30.7363H9.14258L9.71401 33.022H16.2854V30.7363Z" fill="#F65335"/>
<path d="M16.2852 36.4512H10.2852L10.8566 38.7369H16.2852V36.4512Z" fill="#F65335"/>
<path d="M32 64C49.6731 64 64 49.6731 64 32C64 14.3269 49.6731 0 32 0C14.3269 0 0 14.3269 0 32C0 49.6731 14.3269 64 32 64Z" fill="#F65335"/>
<path d="M52.8763 35.2663C53.124 35.2663 53.3249 35.0655 53.3249 34.8177C53.3249 34.57 53.124 34.3691 52.8763 34.3691C52.6286 34.3691 52.4277 34.57 52.4277 34.8177C52.4277 35.0655 52.6286 35.2663 52.8763 35.2663Z" fill="white"/>
<path d="M52.2551 23.3262H18.5723V44.4033H52.2551V23.3262Z" fill="#0B2127"/>
<path d="M55.4294 20.166H20.5723V42.4517H55.4294V20.166Z" fill="white"/>
<path d="M54.8571 20.7366V41.8795H21.1429V20.7366H54.8571V20.7366ZM56 19.5938H20V43.0223H56V19.5938Z" fill="#0B2127"/>
<path d="M50.9925 22.6543H25.0097C25.0082 23.1638 24.8045 23.6518 24.4435 24.0113C24.0824 24.3707 23.5935 24.5722 23.084 24.5714V37.9714C23.5927 37.9714 24.0808 38.1727 24.4416 38.5314C24.8025 38.8901 25.0067 39.377 25.0097 39.8857V39.9H50.9925V39.8857C50.9849 39.3866 51.1755 38.9047 51.5226 38.5459C51.8696 38.187 52.3448 37.9804 52.844 37.9714H52.9183V24.5714H52.8583C52.6095 24.5692 52.3637 24.5177 52.135 24.42C51.9063 24.3222 51.6992 24.1801 51.5257 24.0018C51.3523 23.8236 51.2158 23.6127 51.1243 23.3814C51.0328 23.1501 50.988 22.903 50.9925 22.6543V22.6543Z" fill="#0B2127"/>
<path d="M38.4351 35.8638V36.7867H37.7151V35.8638C36.1979 35.7638 35.1436 34.9552 34.6465 33.6724L36.3208 32.6867C36.5779 33.5438 37.0922 34.0581 37.7151 34.2067V31.921L37.0922 31.7838C36.4842 31.6806 35.9349 31.3588 35.5477 30.8789C35.1604 30.399 34.9618 29.7942 34.9893 29.1781C34.9893 27.6467 36.0893 26.761 37.7151 26.661V25.7695H38.4379V26.6667C39.6608 26.7667 40.7494 27.3638 41.2265 28.6467L39.7151 29.5952C39.4722 28.8238 39.0322 28.3752 38.4436 28.2238V30.3067L39.3351 30.5181C40.8179 30.8667 41.3665 31.7381 41.3665 33.0467C41.3579 34.6181 40.2322 35.7152 38.4351 35.8638ZM37.7151 30.121V28.1981C37.5989 28.2039 37.4851 28.2327 37.3802 28.2828C37.2753 28.3329 37.1813 28.4033 37.1037 28.4899C37.0261 28.5765 36.9665 28.6776 36.9282 28.7874C36.89 28.8972 36.8738 29.0135 36.8808 29.1295C36.8779 29.5381 37.1436 29.8981 37.7151 30.121ZM39.4093 33.2067C39.4093 32.6752 39.1865 32.2895 38.4379 32.0924V34.2352C39.0322 34.161 39.4065 33.8152 39.4065 33.2067H39.4093Z" fill="white"/>
<path d="M16.2857 25.0234H8L8.57143 27.3092H16.2857V25.0234Z" fill="#0B2127"/>
<path d="M16.2854 30.7363H9.14258L9.71401 33.022H16.2854V30.7363Z" fill="#0B2127"/>
<path d="M16.2852 36.4512H10.2852L10.8566 38.7369H16.2852V36.4512Z" fill="#0B2127"/>
</svg>
