<?xml version="1.0" encoding="utf-8"?>
<svg width="64" height="64" viewBox="0 0 64 64" fill="none" xmlns="http://www.w3.org/2000/svg">
<g clip-path="url(#clip0)">
<path d="M36.4286 10.8572V40.5715H1.17142C1.05714 40.2 0.971424 39.8 0.885709 39.4286C-0.231735 34.688 -0.256831 29.7553 0.812319 25.0035C1.88147 20.2517 4.01688 15.8052 7.05714 12C7.37142 11.6 7.68571 11.2286 8.02856 10.8572H36.4286Z" fill="white"/>
<path d="M7.97143 10.8572C7.62857 11.2286 7.31429 11.6 7 12H35.2571V39.4286H0.857147C0.942861 39.8 1.05715 40.2 1.14286 40.5715H36.4V10.8572H7.97143Z" fill="#0B2127"/>
<path d="M15.2857 10.8572H14.1429V41.7143H15.2857V10.8572Z" fill="#0B2127"/>
<path d="M6.71429 40.5713V44.5713C6.71903 44.7622 6.70948 44.9532 6.68572 45.1427C6.54286 46.9999 5.74286 48.2856 4.74286 48.5141H4.71429C4.68572 48.5141 4.62858 48.5427 4.6 48.5427C3.9381 47.4432 3.33719 46.3082 2.80001 45.1427C2.65715 44.857 2.54286 44.5427 2.40001 44.2284C2.34286 44.0856 2.28572 43.9141 2.22858 43.7713C2.27965 43.6633 2.33689 43.5584 2.40001 43.457C3.54286 41.7999 6.71429 40.5713 6.71429 40.5713Z" fill="#0B2127"/>
<path d="M6.82857 40.5715L6.71428 42.3715L6.51428 45.143C6.51428 46.5715 5.48571 48.2287 4.74285 48.5144H4.71428C4.68571 48.5144 4.62857 48.543 4.6 48.543H4.37142C4.44876 48.5491 4.52653 48.5393 4.6 48.5144C3.93809 47.4149 3.33718 46.2799 2.8 45.1144C2.65714 44.8287 2.54285 44.5144 2.4 44.2001C2.34285 44.0573 2.28571 43.8858 2.22857 43.743C1.80701 42.6975 1.44453 41.6291 1.14285 40.543H6.82857V40.5715Z" fill="#0B2127"/>
<path d="M55.8571 40.5716C55.848 41.4052 55.6596 42.227 55.3046 42.9813C54.9497 43.7356 54.4365 44.4047 53.8 44.943C53.5429 47.0573 52.7143 48.5716 51.7143 48.5716H48.7143C47.9143 48.5716 47.2286 47.543 46.8286 46.0001H33.2286C32.8286 47.543 32.1429 48.5716 31.3429 48.5716H27.7714C26.9714 48.5716 26.2857 47.543 25.8857 46.0001H20.3143C20.0571 47.5144 19.4286 48.5716 18.7143 48.5716H11.7143C10.8571 48.5716 10.1429 47.0859 10 45.143H2.82857C2.68572 44.8573 2.57143 44.543 2.42857 44.2287V40.2859H18.1429V16.8573C18.1364 16.6751 18.1661 16.4934 18.2302 16.3228C18.2943 16.1521 18.3916 15.9959 18.5165 15.8631C18.6413 15.7302 18.7913 15.6235 18.9576 15.5489C19.124 15.4744 19.3035 15.4335 19.4857 15.4287H37.8286C38.7714 15.4287 39.7714 16.9144 41.3429 19.4287L44.4571 24.4287C44.5385 24.5606 44.5965 24.7056 44.6286 24.8573L45.9143 30.1144C48.8857 30.6859 51.2286 32.8573 51.2286 33.0001V35.3716C53.2857 35.8859 54.0857 37.0573 54.0857 37.143V40.5716H55.8571Z" fill="#0B2127"/>
<path d="M47.7429 38.2856H40.8286C40.6474 38.2879 40.4743 38.3608 40.3462 38.4889C40.218 38.6171 40.1451 38.7902 40.1429 38.9714V39.1428H48.4286V38.9714C48.4263 38.7902 48.3534 38.6171 48.2253 38.4889C48.0972 38.3608 47.924 38.2879 47.7429 38.2856Z" fill="white"/>
<path d="M47.7429 36.5713H40.8286C40.6474 36.5735 40.4743 36.6465 40.3462 36.7746C40.218 36.9027 40.1451 37.0758 40.1429 37.257V37.4284H48.4286V37.257C48.4263 37.0758 48.3534 36.9027 48.2253 36.7746C48.0972 36.6465 47.924 36.5735 47.7429 36.5713Z" fill="white"/>
<path d="M47.7429 34.8569H40.8286C40.6474 34.8592 40.4743 34.9321 40.3462 35.0602C40.218 35.1884 40.1451 35.3615 40.1429 35.5426V35.7141H48.4286V35.5426C48.4263 35.3615 48.3534 35.1884 48.2253 35.0602C48.0972 34.9321 47.924 34.8592 47.7429 34.8569Z" fill="white"/>
<path d="M43.3714 25.3428L31.0571 25.0571C31.0065 25.059 30.9567 25.0708 30.9106 25.0919C30.8645 25.113 30.823 25.143 30.7885 25.1801C30.754 25.2173 30.7272 25.2609 30.7095 25.3084C30.6919 25.3559 30.6838 25.4065 30.6857 25.4571L30.6571 29.6C30.6522 29.6979 30.685 29.7939 30.7488 29.8683C30.8126 29.9427 30.9025 29.9899 31 30H44.2571C44.3134 29.9947 44.3678 29.9773 44.4167 29.949C44.4655 29.9207 44.5077 29.8822 44.5403 29.836C44.5729 29.7899 44.5951 29.7372 44.6054 29.6817C44.6157 29.6261 44.6138 29.569 44.6 29.5143L43.7143 25.6286C43.6962 25.55 43.6529 25.4795 43.591 25.4279C43.5291 25.3763 43.4519 25.3464 43.3714 25.3428Z" fill="white"/>
<path d="M26.2857 25.343L29.4 25.1716C29.5095 25.1619 29.6185 25.1953 29.7039 25.2646C29.7892 25.3339 29.8442 25.4338 29.8571 25.543L29.8857 29.4287C29.8728 29.5379 29.8178 29.6378 29.7324 29.7071C29.6471 29.7764 29.5381 29.8098 29.4286 29.8001L26.2857 29.1144C26 29.1144 25.7714 28.8858 25.8571 28.6573V25.7144C25.8728 25.6117 25.9245 25.5178 26.003 25.4498C26.0816 25.3817 26.1818 25.3439 26.2857 25.343Z" fill="white"/>
<path d="M41.3429 28.2857C40.8916 28.2883 40.4468 28.3924 40.0412 28.5902C39.6357 28.7881 39.2798 29.0746 39 29.4286H40.3143C40.6194 29.2568 40.9642 29.1681 41.3143 29.1714C41.6648 29.1648 42.0105 29.2537 42.3143 29.4286H43.6286C43.3648 29.0712 43.0202 28.7814 42.6229 28.5828C42.2256 28.3841 41.787 28.2823 41.3429 28.2857Z" fill="#0B2127"/>
<path d="M28.4286 46.2856C29.0597 46.2856 29.5714 45.0064 29.5714 43.4284C29.5714 41.8505 29.0597 40.5713 28.4286 40.5713C27.7974 40.5713 27.2857 41.8505 27.2857 43.4284C27.2857 45.0064 27.7974 46.2856 28.4286 46.2856Z" fill="white"/>
<path d="M33.6572 40.6573H33.0857C33.0783 40.2445 32.9896 39.8373 32.8248 39.4588C32.6599 39.0803 32.4221 38.7381 32.1249 38.4515C31.8278 38.165 31.4771 37.9398 31.0929 37.7888C30.7087 37.6378 30.2985 37.564 29.8857 37.5715H23.5714V37.0001H29.9143C30.8945 36.9925 31.838 37.3726 32.5391 38.0576C33.2402 38.7427 33.6421 39.6771 33.6572 40.6573Z" fill="white"/>
<path d="M50.4 44.2855H39.5428V43.7141H50.4C51.5714 43.7141 52.5143 42.9141 52.5143 41.9141H53.0857C53.0857 43.2283 51.8857 44.2855 50.4 44.2855Z" fill="white"/>
<path d="M37.1428 40.5716C38.0107 40.5716 38.7143 39.868 38.7143 39.0001C38.7143 38.1323 38.0107 37.4287 37.1428 37.4287C36.275 37.4287 35.5714 38.1323 35.5714 39.0001C35.5714 39.868 36.275 40.5716 37.1428 40.5716Z" fill="white"/>
<path d="M51.4286 40.5716C52.2964 40.5716 53 39.868 53 39.0001C53 38.1323 52.2964 37.4287 51.4286 37.4287C50.5607 37.4287 49.8571 38.1323 49.8571 39.0001C49.8571 39.868 50.5607 40.5716 51.4286 40.5716Z" fill="white"/>
<path d="M59.3714 48.5713C59.1428 48.9427 58.8857 49.3427 58.6285 49.7141H5.34283C5.08569 49.3427 4.85712 48.9427 4.59998 48.5713H59.3714Z" fill="#0B2127"/>
<path d="M13 46.286C13.4734 46.286 13.8571 45.5185 13.8571 44.5717C13.8571 43.6249 13.4734 42.8574 13 42.8574C12.5266 42.8574 12.1429 43.6249 12.1429 44.5717C12.1429 45.5185 12.5266 46.286 13 46.286Z" fill="white"/>
<path d="M16.4286 46.286C16.902 46.286 17.2857 45.5185 17.2857 44.5717C17.2857 43.6249 16.902 42.8574 16.4286 42.8574C15.9552 42.8574 15.5714 43.6249 15.5714 44.5717C15.5714 45.5185 15.9552 46.286 16.4286 46.286Z" fill="white"/>
<path d="M0.0285646 32C0.0198736 34.5014 0.307594 36.9949 0.885707 39.4286H0.857136C-0.267475 34.6889 -0.29696 29.7553 0.770923 25.0026C1.8388 20.2498 3.97596 15.803 7.01999 12H7.05714C2.49796 17.6678 0.017468 24.7261 0.0285646 32Z" fill="white"/>
<path d="M64 32C64.0006 38.8722 61.7888 45.562 57.6919 51.0795C53.595 56.597 47.8307 60.6491 41.2521 62.636C34.6734 64.6229 27.6298 64.4392 21.1636 62.112C14.6974 59.7849 9.15224 55.4379 5.34856 49.7143C5.24284 49.56 5.14284 49.4057 5.03999 49.2486C4.89713 49.0257 4.75713 48.8 4.61999 48.5715L4.60285 48.5429C4.59702 48.535 4.59222 48.5263 4.58856 48.5172C4.51427 48.4 4.4457 48.2829 4.37713 48.1629L4.30285 48.0315C4.27304 47.9886 4.24631 47.9438 4.22284 47.8972C4.12284 47.7257 4.0257 47.5515 3.93713 47.3772C3.89427 47.3029 3.85427 47.2286 3.81427 47.1543C3.71713 46.9743 3.62285 46.7943 3.52856 46.6115C3.51204 46.5851 3.49771 46.5573 3.4857 46.5286C3.25713 46.0829 3.03904 45.6296 2.83142 45.1686L2.8057 45.1143C2.71142 44.8972 2.61427 44.6772 2.51999 44.4572C2.4257 44.2372 2.37142 44.0972 2.29999 43.9172C2.29999 43.8915 2.27999 43.8629 2.26856 43.8372C2.25713 43.8115 2.2457 43.7886 2.23713 43.7629C2.22856 43.7372 2.18856 43.64 2.1657 43.5772L2.14856 43.5343C1.77 42.564 1.44101 41.5751 1.16285 40.5715C1.16015 40.5621 1.16015 40.5522 1.16285 40.5429C1.05713 40.1743 0.959988 39.8029 0.877131 39.4286H0.885702C0.314274 37.0572 6.69999 33.1429 6.69999 33.1429C6.69999 33.1429 2.65713 17.4858 7.05713 12H7.01999C7.32856 11.6115 7.64856 11.2286 7.97999 10.8572C12.2763 5.9763 17.9576 2.52009 24.2674 0.948819C30.5771 -0.622455 37.2158 -0.234224 43.2993 2.06181C49.3829 4.35785 54.6226 8.45272 58.3208 13.8011C62.0189 19.1495 63.9999 25.4976 64 32Z" fill="#F65335"/>
<path d="M36.4285 10.8572V40.5715H1.17141V40.5429C1.05998 40.18 0.977123 39.7915 0.885694 39.4286C-0.23175 34.688 -0.256846 29.7553 0.812304 25.0035C1.88145 20.2517 4.01687 15.8052 7.05712 12C7.37141 11.6 7.68569 11.2286 8.02855 10.8572H36.4285Z" fill="white"/>
<path d="M36.4 10.8572V40.5715H1.14285C1.05713 40.2 0.942846 39.8 0.857132 39.4286H35.2571V12H7.01999C7.32856 11.6115 7.64856 11.2286 7.97999 10.8572H36.4Z" fill="#0B2127"/>
<path d="M15.2857 10.8572H14.1429V41.7143H15.2857V10.8572Z" fill="#0B2127"/>
<path d="M6.71427 40.5713V44.5713C6.71901 44.7622 6.70946 44.9532 6.6857 45.1427C6.54284 46.9999 5.74284 48.2856 4.74284 48.5141H4.71427C4.6857 48.5141 4.63141 48.5399 4.60284 48.5427L4.58855 48.5199C4.49141 48.3599 4.39427 48.1941 4.30284 48.0313C4.27304 47.9885 4.24631 47.9436 4.22284 47.897C4.12284 47.7256 4.0257 47.5513 3.93713 47.377C3.89141 47.3027 3.85141 47.2284 3.81427 47.1541C3.71713 46.9741 3.62284 46.7941 3.52855 46.6113C3.51203 46.5849 3.4977 46.5572 3.4857 46.5284C3.2476 46.0713 3.02093 45.6094 2.8057 45.1427C2.66284 44.857 2.54855 44.5427 2.4057 44.2284C2.34855 44.0856 2.29141 43.9141 2.23427 43.7713C2.28342 43.6671 2.33876 43.566 2.39998 43.4684C2.40859 43.4554 2.41814 43.443 2.42855 43.4313C3.59141 41.7827 6.71427 40.5713 6.71427 40.5713Z" fill="#0B2127"/>
<path d="M6.82857 40.543V40.5715L6.71428 42.3715L6.51428 45.143C6.51428 46.5715 5.48571 48.2287 4.74285 48.5144H4.71428C4.68571 48.5144 4.63142 48.5401 4.60285 48.543L4.58857 48.5201H4.60285C3.95233 47.4372 3.36006 46.3204 2.82857 45.1744L2.80285 45.1201C2.7 44.9115 2.61142 44.6915 2.51714 44.463C2.48 44.3773 2.44285 44.2915 2.40285 44.2058C2.36285 44.1201 2.33142 44.0201 2.29714 43.9201C2.27714 43.8658 2.25714 43.8115 2.23714 43.763C2.23838 43.7573 2.23838 43.7515 2.23714 43.7458L2.15142 43.5373C1.75714 42.5715 1.44285 41.5744 1.14285 40.5715V40.543H6.82857Z" fill="#0B2127"/>
<path d="M55.8571 40.5716C55.848 41.4052 55.6596 42.227 55.3046 42.9813C54.9496 43.7356 54.4365 44.4046 53.8 44.943C53.5428 47.0573 52.7143 48.5716 51.7143 48.5716H48.7143C47.9143 48.5716 47.2286 47.543 46.8286 46.0001H33.2286C32.8286 47.543 32.1428 48.5716 31.3428 48.5716H27.7714C26.9714 48.5716 26.2857 47.543 25.8857 46.0001H20.3143C20.0571 47.5144 19.4286 48.5716 18.7143 48.5716H11.7143C10.8571 48.5716 10.1428 47.0859 9.99999 45.143H2.82856C2.6857 44.8573 2.57142 44.543 2.42856 44.2287V40.2859H18.1428V16.8573C18.1364 16.6751 18.166 16.4934 18.2302 16.3228C18.2943 16.1521 18.3916 15.9959 18.5165 15.8631C18.6413 15.7302 18.7913 15.6235 18.9576 15.5489C19.124 15.4744 19.3035 15.4335 19.4857 15.4287H37.8286C38.7714 15.4287 39.7714 16.9144 41.3428 19.4287L44.4571 24.4287C44.5385 24.5606 44.5965 24.7056 44.6286 24.8573L45.9143 30.1144C48.8857 30.6859 51.2286 32.8573 51.2286 33.0001V35.3716C53.2857 35.8859 54.0857 37.0573 54.0857 37.143V40.5716H55.8571Z" fill="#0B2127"/>
<path d="M47.7429 38.2856H40.8286C40.6474 38.2879 40.4743 38.3608 40.3462 38.4889C40.218 38.6171 40.1451 38.7902 40.1429 38.9714V39.1428H48.4286V38.9714C48.4263 38.7902 48.3534 38.6171 48.2253 38.4889C48.0971 38.3608 47.924 38.2879 47.7429 38.2856Z" fill="white"/>
<path d="M47.7429 36.5713H40.8286C40.6474 36.5735 40.4743 36.6465 40.3462 36.7746C40.218 36.9027 40.1451 37.0758 40.1429 37.257V37.4284H48.4286V37.257C48.4263 37.0758 48.3534 36.9027 48.2253 36.7746C48.0971 36.6465 47.924 36.5735 47.7429 36.5713Z" fill="white"/>
<path d="M47.7429 34.8569H40.8286C40.6474 34.8592 40.4743 34.9321 40.3462 35.0602C40.218 35.1884 40.1451 35.3615 40.1429 35.5426V35.7141H48.4286V35.5426C48.4263 35.3615 48.3534 35.1884 48.2253 35.0602C48.0971 34.9321 47.924 34.8592 47.7429 34.8569Z" fill="white"/>
<path d="M43.3714 25.3428L31.0571 25.0571C31.0065 25.059 30.9567 25.0708 30.9106 25.0919C30.8645 25.113 30.823 25.143 30.7885 25.1801C30.754 25.2173 30.7272 25.2609 30.7095 25.3084C30.6919 25.3559 30.6838 25.4065 30.6857 25.4571L30.6571 29.6C30.6522 29.6979 30.685 29.7939 30.7488 29.8683C30.8126 29.9427 30.9025 29.9899 31 30H44.2571C44.3134 29.9947 44.3678 29.9773 44.4167 29.949C44.4655 29.9207 44.5077 29.8821 44.5403 29.836C44.5729 29.7899 44.5951 29.7372 44.6054 29.6817C44.6157 29.6261 44.6138 29.569 44.6 29.5143L43.7143 25.6286C43.6962 25.55 43.6529 25.4795 43.591 25.4279C43.5291 25.3763 43.4519 25.3464 43.3714 25.3428Z" fill="white"/>
<path d="M26.2857 25.343L29.4 25.1716C29.5095 25.1619 29.6185 25.1953 29.7038 25.2646C29.7892 25.3339 29.8442 25.4338 29.8571 25.543L29.8857 29.4287C29.8727 29.5379 29.8178 29.6378 29.7324 29.7071C29.6471 29.7764 29.5381 29.8098 29.4285 29.8001L26.2857 29.1144C26 29.1144 25.7714 28.8858 25.8571 28.6573V25.7144C25.8727 25.6117 25.9245 25.5178 26.003 25.4498C26.0815 25.3817 26.1818 25.3439 26.2857 25.343Z" fill="white"/>
<path d="M41.3429 28.2857C40.8916 28.2883 40.4468 28.3924 40.0412 28.5902C39.6357 28.7881 39.2798 29.0746 39 29.4286H40.3143C40.6194 29.2568 40.9642 29.1681 41.3143 29.1714C41.6648 29.1648 42.0105 29.2537 42.3143 29.4286H43.6286C43.3648 29.0712 43.0202 28.7814 42.6229 28.5828C42.2256 28.3841 41.787 28.2823 41.3429 28.2857Z" fill="#0B2127"/>
<path d="M28.4286 46.2856C29.0597 46.2856 29.5714 45.0064 29.5714 43.4284C29.5714 41.8505 29.0597 40.5713 28.4286 40.5713C27.7974 40.5713 27.2857 41.8505 27.2857 43.4284C27.2857 45.0064 27.7974 46.2856 28.4286 46.2856Z" fill="white"/>
<path d="M33.6571 40.6573H33.0857C33.0783 40.2445 32.9896 39.8373 32.8247 39.4588C32.6599 39.0803 32.4221 38.7381 32.1249 38.4515C31.8278 38.165 31.4771 37.9398 31.0928 37.7888C30.7086 37.6378 30.2984 37.564 29.8857 37.5715H23.5714V37.0001H29.9143C30.8945 36.9925 31.838 37.3726 32.5391 38.0576C33.2402 38.7427 33.6421 39.6771 33.6571 40.6573Z" fill="white"/>
<path d="M50.4 44.2855H39.5428V43.7141H50.4C51.5714 43.7141 52.5143 42.9141 52.5143 41.9141H53.0857C53.0857 43.2283 51.8857 44.2855 50.4 44.2855Z" fill="white"/>
<path d="M37.1428 40.5716C38.0107 40.5716 38.7143 39.868 38.7143 39.0001C38.7143 38.1323 38.0107 37.4287 37.1428 37.4287C36.275 37.4287 35.5714 38.1323 35.5714 39.0001C35.5714 39.868 36.275 40.5716 37.1428 40.5716Z" fill="white"/>
<path d="M51.4286 40.5716C52.2965 40.5716 53 39.868 53 39.0001C53 38.1323 52.2965 37.4287 51.4286 37.4287C50.5607 37.4287 49.8571 38.1323 49.8571 39.0001C49.8571 39.868 50.5607 40.5716 51.4286 40.5716Z" fill="white"/>
<path d="M59.3714 48.5713C59.1428 48.9427 58.8857 49.3427 58.6285 49.7141H5.34282C5.23711 49.5627 5.13711 49.4056 5.03996 49.2484C4.89711 49.0256 4.75711 48.7999 4.61996 48.5713H59.3714Z" fill="#0B2127"/>
<path d="M13 46.286C13.4734 46.286 13.8571 45.5185 13.8571 44.5717C13.8571 43.6249 13.4734 42.8574 13 42.8574C12.5266 42.8574 12.1429 43.6249 12.1429 44.5717C12.1429 45.5185 12.5266 46.286 13 46.286Z" fill="white"/>
<path d="M16.4286 46.286C16.9019 46.286 17.2857 45.5185 17.2857 44.5717C17.2857 43.6249 16.9019 42.8574 16.4286 42.8574C15.9552 42.8574 15.5714 43.6249 15.5714 44.5717C15.5714 45.5185 15.9552 46.286 16.4286 46.286Z" fill="white"/>
</g>
<defs>
<clipPath id="clip0">
<rect width="64" height="64" fill="white"/>
</clipPath>
</defs>
</svg>
